# xmcd
#
# Track frame offsets: 
#        150
#        97046
#        195609
#
# Disc length: 3420 seconds
#
# Revision: 0
# Processed by: cddbd v1.5.2PL0 Copyright (c) Steve Scherf et al.
# Submitted via: ExactAudioCopy v0.95a5
#
DISCID=210d5a03
DTITLE=Various Artist - ÌìÍâÖ®Òô
DYEAR=2007
DGENRE=A Cappella
TTITLE0=Ğé¿Õ²ØÆĞÈøÖä(èó³ª°æ)
TTITLE1=Ğé¿Õ²ØÆĞÈøÖä(ÄĞÅ®ÖÚ³ª°æ)
TTITLE2=Ğé¿Õ²ØÆĞÈøÖä(¶şºúÑİ×à°æ)
EXTD=
EXTT0=
EXTT1=
EXTT2=
PLAYORDER=
